<svg width="9306" height="8136" viewBox="0 0 9306 8136" fill="none" xmlns="http://www.w3.org/2000/svg">
<path fill-rule="evenodd" clip-rule="evenodd" d="M0 0.999953C0 0.447669 0.447715 0 1 0H1746.55C1891.43 0 1963.87 0 2024.86 6.24943C2590.85 64.2391 3038.31 511.706 3096.3 1077.69C3102.55 1138.69 3102.55 1211.12 3102.55 1356V1356C3102.55 1500.88 3102.55 1573.31 3108.8 1634.31C3166.79 2200.29 3614.26 2647.76 4180.24 2705.75C4241.24 2712 4313.68 2712 4458.55 2712H4847.45C4992.32 2712 5064.76 2712 5125.76 2718.25C5691.74 2776.24 6139.21 3223.71 6197.2 3789.69C6203.45 3850.69 6203.45 3923.12 6203.45 4068V4068C6203.45 4212.88 6203.45 4285.31 6209.7 4346.31C6267.69 4912.29 6715.15 5359.76 7281.14 5417.75C7342.13 5424 7414.57 5424 7559.45 5424H9305C9305.32 5424 9305.6 5423.85 9305.78 5423.63C9305.92 5423.45 9306 5423.24 9306 5423V8135C9306 8135.55 9305.55 8136 9305 8136H1.00009C0.447805 8136 0 8135.55 0 8135V0.999953Z" fill="white"/>
</svg>
