<svg width="51" height="28" viewBox="0 0 51 28" fill="none" xmlns="http://www.w3.org/2000/svg">
<path d="M6.792 6.516C6.792 7.02 6.67 7.458 6.426 7.83C6.182 8.202 5.844 8.49 5.412 8.694C4.98 8.898 4.486 9 3.93 9C3.542 9 3.17 8.962 2.814 8.886C2.458 8.81 2.162 8.698 1.926 8.55L1.998 8.31C2.134 8.394 2.306 8.468 2.514 8.532C2.726 8.596 2.952 8.646 3.192 8.682C3.432 8.718 3.666 8.736 3.894 8.736C4.374 8.736 4.79 8.646 5.142 8.466C5.498 8.282 5.772 8.022 5.964 7.686C6.16 7.35 6.258 6.958 6.258 6.51C6.258 5.982 6.136 5.518 5.892 5.118C5.652 4.718 5.302 4.406 4.842 4.182C4.386 3.958 3.834 3.846 3.186 3.846H2.226V11.454C2.226 11.53 2.25 11.592 2.298 11.64C2.35 11.688 2.422 11.716 2.514 11.724L3.288 11.79C3.352 11.794 3.396 11.806 3.42 11.826C3.448 11.846 3.462 11.872 3.462 11.904C3.462 11.932 3.45 11.956 3.426 11.976C3.406 11.992 3.368 12 3.312 12H0.924C0.872 12 0.834 11.992 0.81 11.976C0.786 11.956 0.774 11.932 0.774 11.904C0.774 11.844 0.832 11.806 0.948 11.79L1.452 11.724C1.544 11.712 1.616 11.684 1.668 11.64C1.72 11.592 1.746 11.53 1.746 11.454V4.146C1.746 4.07 1.72 4.01 1.668 3.966C1.616 3.918 1.544 3.888 1.452 3.876L0.948 3.81C0.832 3.794 0.774 3.756 0.774 3.696C0.774 3.664 0.786 3.64 0.81 3.624C0.834 3.608 0.872 3.6 0.924 3.6H3.186C3.93 3.6 4.57 3.726 5.106 3.978C5.646 4.23 6.062 4.576 6.354 5.016C6.646 5.456 6.792 5.956 6.792 6.516ZM8.73141 8.814H12.3674L12.4274 9.072H8.64141L8.73141 8.814ZM9.04941 11.904C9.04941 11.932 9.03541 11.956 9.00741 11.976C8.98341 11.992 8.94141 12 8.88141 12H7.06341C7.00341 12 6.95941 11.992 6.93141 11.976C6.90741 11.96 6.89541 11.938 6.89541 11.91C6.89541 11.886 6.90541 11.866 6.92541 11.85C6.94941 11.834 7.00141 11.816 7.08141 11.796L7.38141 11.718C7.48541 11.69 7.55941 11.646 7.60341 11.586C7.65141 11.522 7.70541 11.404 7.76541 11.232L10.2554 4.05C10.2874 3.97 10.2874 3.914 10.2554 3.882C10.2274 3.846 10.1434 3.82 10.0034 3.804C9.89141 3.792 9.81341 3.778 9.76941 3.762C9.72541 3.742 9.70341 3.716 9.70341 3.684C9.70341 3.656 9.71741 3.636 9.74541 3.624C9.77741 3.608 9.82141 3.6 9.87741 3.6H11.4494C11.5094 3.6 11.5514 3.608 11.5754 3.624C11.6034 3.636 11.6174 3.654 11.6174 3.678C11.6174 3.71 11.5974 3.736 11.5574 3.756C11.5214 3.776 11.4474 3.792 11.3354 3.804C11.2114 3.816 11.1374 3.836 11.1134 3.864C11.0894 3.888 11.0894 3.936 11.1134 4.008L13.7174 11.466C13.7494 11.566 13.8054 11.642 13.8854 11.694C13.9654 11.742 14.0854 11.774 14.2454 11.79C14.3374 11.798 14.3974 11.812 14.4254 11.832C14.4574 11.848 14.4734 11.872 14.4734 11.904C14.4734 11.932 14.4574 11.956 14.4254 11.976C14.3974 11.992 14.3554 12 14.2994 12H12.4394C12.3914 12 12.3514 11.992 12.3194 11.976C12.2914 11.956 12.2774 11.932 12.2774 11.904C12.2774 11.876 12.2914 11.852 12.3194 11.832C12.3474 11.812 12.3934 11.8 12.4574 11.796L13.0334 11.748C13.1374 11.74 13.1954 11.71 13.2074 11.658C13.2234 11.602 13.2094 11.512 13.1654 11.388L10.5194 3.828L10.6454 3.81L8.08941 11.226C8.05341 11.334 8.03541 11.424 8.03541 11.496C8.03541 11.564 8.05741 11.618 8.10141 11.658C8.14941 11.694 8.21941 11.718 8.31141 11.73L8.86341 11.796C8.93541 11.804 8.98341 11.816 9.00741 11.832C9.03541 11.848 9.04941 11.872 9.04941 11.904ZM16.8742 11.454C16.8742 11.53 16.8982 11.592 16.9462 11.64C16.9982 11.684 17.0702 11.712 17.1622 11.724L17.6722 11.79C17.7882 11.806 17.8462 11.844 17.8462 11.904C17.8462 11.932 17.8342 11.956 17.8102 11.976C17.7902 11.992 17.7522 12 17.6962 12H15.5722C15.5202 12 15.4822 11.992 15.4582 11.976C15.4342 11.956 15.4222 11.932 15.4222 11.904C15.4222 11.844 15.4802 11.806 15.5962 11.79L16.1002 11.724C16.1922 11.712 16.2642 11.684 16.3162 11.64C16.3682 11.592 16.3942 11.53 16.3942 11.454V4.146C16.3942 4.07 16.3682 4.01 16.3162 3.966C16.2642 3.918 16.1922 3.888 16.1002 3.876L15.5962 3.81C15.4802 3.794 15.4222 3.756 15.4222 3.696C15.4222 3.664 15.4342 3.64 15.4582 3.624C15.4822 3.608 15.5202 3.6 15.5722 3.6H17.6962C17.7522 3.6 17.7902 3.608 17.8102 3.624C17.8342 3.64 17.8462 3.664 17.8462 3.696C17.8462 3.756 17.7882 3.794 17.6722 3.81L17.1622 3.876C17.0702 3.888 16.9982 3.918 16.9462 3.966C16.8982 4.01 16.8742 4.07 16.8742 4.146V11.454ZM22.3774 12.198C21.9694 12.198 21.6214 12.144 21.3334 12.036C21.0494 11.928 20.8214 11.822 20.6494 11.718C20.4774 11.61 20.3674 11.556 20.3194 11.556C20.2674 11.556 20.2354 11.588 20.2234 11.652C20.2114 11.712 20.2034 11.784 20.1994 11.868C20.1954 11.952 20.1854 12.024 20.1694 12.084C20.1534 12.148 20.1154 12.18 20.0554 12.18C20.0274 12.18 20.0034 12.168 19.9834 12.144C19.9674 12.124 19.9534 12.092 19.9414 12.048L19.4314 10.266C19.4154 10.218 19.4154 10.178 19.4314 10.146C19.4474 10.11 19.4754 10.086 19.5154 10.074C19.5554 10.062 19.5894 10.066 19.6174 10.086C19.6494 10.102 19.6754 10.132 19.6954 10.176C19.8754 10.576 20.1074 10.906 20.3914 11.166C20.6794 11.426 20.9954 11.62 21.3394 11.748C21.6834 11.876 22.0334 11.94 22.3894 11.94C22.9134 11.94 23.3174 11.79 23.6014 11.49C23.8894 11.19 24.0354 10.81 24.0394 10.35C24.0434 10.07 23.9834 9.806 23.8594 9.558C23.7394 9.306 23.5134 9.064 23.1814 8.832C22.8534 8.596 22.3794 8.364 21.7594 8.136C21.1794 7.916 20.7134 7.678 20.3614 7.422C20.0094 7.166 19.7534 6.886 19.5934 6.582C19.4334 6.274 19.3534 5.936 19.3534 5.568C19.3534 5.128 19.4514 4.75 19.6474 4.434C19.8474 4.114 20.1214 3.868 20.4694 3.696C20.8174 3.524 21.2154 3.438 21.6634 3.438C22.0754 3.438 22.4034 3.488 22.6474 3.588C22.8954 3.688 23.0854 3.79 23.2174 3.894C23.3534 3.994 23.4574 4.044 23.5294 4.044C23.6094 4.044 23.6474 3.996 23.6434 3.9C23.6434 3.8 23.6434 3.7 23.6434 3.6C23.6434 3.5 23.6834 3.45 23.7634 3.45C23.7954 3.45 23.8174 3.46 23.8294 3.48C23.8454 3.5 23.8614 3.532 23.8774 3.576L24.4894 5.508C24.5054 5.548 24.5054 5.588 24.4894 5.628C24.4734 5.664 24.4494 5.688 24.4174 5.7C24.3774 5.712 24.3414 5.71 24.3094 5.694C24.2774 5.678 24.2494 5.646 24.2254 5.598C24.0014 5.13 23.7554 4.758 23.4874 4.482C23.2194 4.202 22.9294 4 22.6174 3.876C22.3094 3.752 21.9794 3.69 21.6274 3.69C21.0754 3.69 20.6294 3.85 20.2894 4.17C19.9534 4.49 19.7854 4.914 19.7854 5.442C19.7854 5.742 19.8514 6.026 19.9834 6.294C20.1154 6.558 20.3414 6.81 20.6614 7.05C20.9854 7.286 21.4334 7.514 22.0054 7.734C22.6294 7.974 23.1214 8.22 23.4814 8.472C23.8414 8.724 24.0954 8.996 24.2434 9.288C24.3954 9.576 24.4694 9.896 24.4654 10.248C24.4614 10.6 24.3794 10.924 24.2194 11.22C24.0634 11.516 23.8314 11.754 23.5234 11.934C23.2154 12.11 22.8334 12.198 22.3774 12.198ZM27.0947 8.814H30.7307L30.7907 9.072H27.0047L27.0947 8.814ZM27.4127 11.904C27.4127 11.932 27.3987 11.956 27.3707 11.976C27.3467 11.992 27.3047 12 27.2447 12H25.4267C25.3667 12 25.3227 11.992 25.2947 11.976C25.2707 11.96 25.2587 11.938 25.2587 11.91C25.2587 11.886 25.2687 11.866 25.2887 11.85C25.3127 11.834 25.3647 11.816 25.4447 11.796L25.7447 11.718C25.8487 11.69 25.9227 11.646 25.9667 11.586C26.0147 11.522 26.0687 11.404 26.1287 11.232L28.6187 4.05C28.6507 3.97 28.6507 3.914 28.6187 3.882C28.5907 3.846 28.5067 3.82 28.3667 3.804C28.2547 3.792 28.1767 3.778 28.1327 3.762C28.0887 3.742 28.0667 3.716 28.0667 3.684C28.0667 3.656 28.0807 3.636 28.1087 3.624C28.1407 3.608 28.1847 3.6 28.2407 3.6H29.8127C29.8727 3.6 29.9147 3.608 29.9387 3.624C29.9667 3.636 29.9807 3.654 29.9807 3.678C29.9807 3.71 29.9607 3.736 29.9207 3.756C29.8847 3.776 29.8107 3.792 29.6987 3.804C29.5747 3.816 29.5007 3.836 29.4767 3.864C29.4527 3.888 29.4527 3.936 29.4767 4.008L32.0807 11.466C32.1127 11.566 32.1687 11.642 32.2487 11.694C32.3287 11.742 32.4487 11.774 32.6087 11.79C32.7007 11.798 32.7607 11.812 32.7887 11.832C32.8207 11.848 32.8367 11.872 32.8367 11.904C32.8367 11.932 32.8207 11.956 32.7887 11.976C32.7607 11.992 32.7187 12 32.6627 12H30.8027C30.7547 12 30.7147 11.992 30.6827 11.976C30.6547 11.956 30.6407 11.932 30.6407 11.904C30.6407 11.876 30.6547 11.852 30.6827 11.832C30.7107 11.812 30.7567 11.8 30.8207 11.796L31.3967 11.748C31.5007 11.74 31.5587 11.71 31.5707 11.658C31.5867 11.602 31.5727 11.512 31.5287 11.388L28.8827 3.828L29.0087 3.81L26.4527 11.226C26.4167 11.334 26.3987 11.424 26.3987 11.496C26.3987 11.564 26.4207 11.618 26.4647 11.658C26.5127 11.694 26.5827 11.718 26.6747 11.73L27.2267 11.796C27.2987 11.804 27.3467 11.816 27.3707 11.832C27.3987 11.848 27.4127 11.872 27.4127 11.904ZM36.2334 11.904C36.2334 11.932 36.2174 11.956 36.1854 11.976C36.1574 11.992 36.1154 12 36.0594 12H33.8934C33.8374 12 33.7934 11.992 33.7614 11.976C33.7334 11.956 33.7194 11.932 33.7194 11.904C33.7194 11.86 33.7714 11.826 33.8754 11.802L34.3794 11.688C34.5634 11.644 34.6814 11.6 34.7334 11.556C34.7894 11.508 34.8174 11.424 34.8174 11.304V5.022C34.8174 4.926 34.7994 4.838 34.7634 4.758C34.7274 4.678 34.6394 4.56 34.4994 4.404L33.9294 3.762C33.8974 3.726 33.8774 3.7 33.8694 3.684C33.8614 3.668 33.8574 3.654 33.8574 3.642C33.8574 3.626 33.8634 3.616 33.8754 3.612C33.8914 3.604 33.9134 3.6 33.9414 3.6H34.3134C34.3774 3.6 34.4334 3.612 34.4814 3.636C34.5294 3.66 34.5814 3.706 34.6374 3.774L40.4814 10.992L40.3014 11.166V4.296C40.3014 4.176 40.2734 4.092 40.2174 4.044C40.1654 3.996 40.0474 3.952 39.8634 3.912L39.3534 3.798C39.2494 3.774 39.1974 3.74 39.1974 3.696C39.1974 3.664 39.2114 3.64 39.2394 3.624C39.2714 3.608 39.3154 3.6 39.3714 3.6H41.5374C41.5934 3.6 41.6354 3.608 41.6634 3.624C41.6954 3.64 41.7114 3.664 41.7114 3.696C41.7114 3.74 41.6594 3.774 41.5554 3.798L41.0574 3.912C40.8694 3.952 40.7474 3.996 40.6914 4.044C40.6394 4.092 40.6134 4.176 40.6134 4.296V10.986C40.6134 11.074 40.6234 11.142 40.6434 11.19C40.6634 11.234 40.6934 11.282 40.7334 11.334L41.0994 11.778C41.1314 11.818 41.1534 11.85 41.1654 11.874C41.1814 11.898 41.1894 11.92 41.1894 11.94C41.1894 11.956 41.1814 11.97 41.1654 11.982C41.1494 11.994 41.1154 12 41.0634 12H40.6014C40.5134 12 40.4694 11.964 40.4694 11.892C40.4694 11.836 40.4594 11.788 40.4394 11.748C40.4234 11.708 40.3694 11.634 40.2774 11.526L34.9614 4.938L35.1294 4.734V11.304C35.1294 11.424 35.1554 11.508 35.2074 11.556C35.2634 11.6 35.3834 11.644 35.5674 11.688L36.0774 11.802C36.1814 11.826 36.2334 11.86 36.2334 11.904ZM44.4502 8.814H48.0862L48.1462 9.072H44.3602L44.4502 8.814ZM44.7682 11.904C44.7682 11.932 44.7542 11.956 44.7262 11.976C44.7022 11.992 44.6602 12 44.6002 12H42.7822C42.7222 12 42.6782 11.992 42.6502 11.976C42.6262 11.96 42.6142 11.938 42.6142 11.91C42.6142 11.886 42.6242 11.866 42.6442 11.85C42.6682 11.834 42.7202 11.816 42.8002 11.796L43.1002 11.718C43.2042 11.69 43.2782 11.646 43.3222 11.586C43.3702 11.522 43.4242 11.404 43.4842 11.232L45.9742 4.05C46.0062 3.97 46.0062 3.914 45.9742 3.882C45.9462 3.846 45.8622 3.82 45.7222 3.804C45.6102 3.792 45.5322 3.778 45.4882 3.762C45.4442 3.742 45.4222 3.716 45.4222 3.684C45.4222 3.656 45.4362 3.636 45.4642 3.624C45.4962 3.608 45.5402 3.6 45.5962 3.6H47.1682C47.2282 3.6 47.2702 3.608 47.2942 3.624C47.3222 3.636 47.3362 3.654 47.3362 3.678C47.3362 3.71 47.3162 3.736 47.2762 3.756C47.2402 3.776 47.1662 3.792 47.0542 3.804C46.9302 3.816 46.8562 3.836 46.8322 3.864C46.8082 3.888 46.8082 3.936 46.8322 4.008L49.4362 11.466C49.4682 11.566 49.5242 11.642 49.6042 11.694C49.6842 11.742 49.8042 11.774 49.9642 11.79C50.0562 11.798 50.1162 11.812 50.1442 11.832C50.1762 11.848 50.1922 11.872 50.1922 11.904C50.1922 11.932 50.1762 11.956 50.1442 11.976C50.1162 11.992 50.0742 12 50.0182 12H48.1582C48.1102 12 48.0702 11.992 48.0382 11.976C48.0102 11.956 47.9962 11.932 47.9962 11.904C47.9962 11.876 48.0102 11.852 48.0382 11.832C48.0662 11.812 48.1122 11.8 48.1762 11.796L48.7522 11.748C48.8562 11.74 48.9142 11.71 48.9262 11.658C48.9422 11.602 48.9282 11.512 48.8842 11.388L46.2382 3.828L46.3642 3.81L43.8082 11.226C43.7722 11.334 43.7542 11.424 43.7542 11.496C43.7542 11.564 43.7762 11.618 43.8202 11.658C43.8682 11.694 43.9382 11.718 44.0302 11.73L44.5822 11.796C44.6542 11.804 44.7022 11.816 44.7262 11.832C44.7542 11.848 44.7682 11.872 44.7682 11.904Z" fill="white"/>
<path d="M19.5968 24.06C19.5008 24.06 19.4108 24.036 19.3268 23.988C19.2468 23.936 19.1828 23.87 19.1348 23.79C19.0908 23.71 19.0688 23.624 19.0688 23.532C19.0688 23.428 19.0908 23.336 19.1348 23.256C19.1828 23.172 19.2468 23.108 19.3268 23.064C19.4108 23.016 19.5008 22.992 19.5968 22.992C19.6968 22.992 19.7848 23.016 19.8608 23.064C19.9408 23.108 20.0028 23.172 20.0468 23.256C20.0948 23.336 20.1188 23.428 20.1188 23.532C20.1188 23.624 20.0948 23.71 20.0468 23.79C20.0028 23.87 19.9408 23.936 19.8608 23.988C19.7848 24.036 19.6968 24.06 19.5968 24.06ZM24.4028 24H21.0488C20.9688 24 20.9088 23.986 20.8688 23.958C20.8288 23.93 20.8168 23.892 20.8328 23.844C20.8368 23.792 20.8648 23.754 20.9167 23.73C20.9728 23.706 21.0448 23.686 21.1328 23.67L21.4448 23.616C21.6168 23.584 21.7528 23.512 21.8528 23.4C21.9528 23.288 22.0308 23.13 22.0868 22.926C22.1348 22.754 22.1988 22.524 22.2788 22.236C22.3588 21.948 22.4468 21.626 22.5428 21.27C22.6428 20.91 22.7468 20.532 22.8548 20.136C22.9628 19.74 23.0668 19.35 23.1668 18.966C23.2708 18.578 23.3668 18.214 23.4548 17.874C23.5468 17.53 23.6248 17.23 23.6888 16.974C23.7528 16.718 23.7988 16.524 23.8268 16.392C23.8468 16.3 23.8388 16.218 23.8027 16.146C23.7708 16.074 23.7128 16.03 23.6288 16.014L23.2088 15.918C23.1288 15.898 23.0668 15.876 23.0228 15.852C22.9828 15.828 22.9628 15.784 22.9628 15.72C22.9628 15.68 22.9848 15.65 23.0288 15.63C23.0768 15.61 23.1388 15.6 23.2148 15.6H25.3388C25.4068 15.6 25.4588 15.612 25.4948 15.636C25.5348 15.66 25.5548 15.696 25.5548 15.744C25.5548 15.796 25.5288 15.838 25.4768 15.87C25.4248 15.902 25.3588 15.922 25.2788 15.93L24.8228 15.99C24.6868 16.006 24.5788 16.062 24.4988 16.158C24.4228 16.254 24.3588 16.384 24.3068 16.548C24.2748 16.656 24.2208 16.842 24.1448 17.106C24.0688 17.37 23.9788 17.684 23.8748 18.048C23.7748 18.408 23.6648 18.796 23.5448 19.212C23.4288 19.628 23.3128 20.044 23.1968 20.46C23.0848 20.876 22.9788 21.27 22.8788 21.642C22.7788 22.014 22.6928 22.34 22.6208 22.62C22.5488 22.896 22.4988 23.1 22.4708 23.232C22.4348 23.392 22.4468 23.506 22.5068 23.574C22.5708 23.642 22.6648 23.676 22.7888 23.676H24.4448C24.7208 23.676 24.9588 23.634 25.1588 23.55C25.3588 23.466 25.5308 23.322 25.6748 23.118C25.8228 22.914 25.9408 22.634 26.0288 22.278C26.0408 22.222 26.0608 22.174 26.0888 22.134C26.1208 22.09 26.1668 22.068 26.2268 22.068C26.2708 22.068 26.3028 22.08 26.3228 22.104C26.3468 22.128 26.3588 22.164 26.3588 22.212C26.3548 22.456 26.3088 22.694 26.2208 22.926C26.1328 23.154 26.0188 23.362 25.8788 23.55C25.7388 23.734 25.5888 23.882 25.4288 23.994C25.2728 24.102 25.1228 24.156 24.9788 24.156C24.9188 24.156 24.8608 24.142 24.8048 24.114C24.7488 24.09 24.6888 24.064 24.6248 24.036C24.5608 24.012 24.4868 24 24.4028 24ZM28.2457 22.77C28.1097 23.126 28.0537 23.368 28.0777 23.496C28.1057 23.624 28.1937 23.688 28.3417 23.688C28.4097 23.688 28.4817 23.668 28.5577 23.628C28.6337 23.588 28.7257 23.53 28.8337 23.454C28.8897 23.41 28.9417 23.372 28.9897 23.34C29.0377 23.304 29.0857 23.298 29.1337 23.322C29.1697 23.338 29.1897 23.372 29.1937 23.424C29.1977 23.472 29.1837 23.522 29.1517 23.574C29.0757 23.69 28.9417 23.804 28.7497 23.916C28.5577 24.028 28.3617 24.084 28.1617 24.084C28.0217 24.084 27.9017 24.05 27.8017 23.982C27.7057 23.91 27.6517 23.786 27.6397 23.61C27.6317 23.43 27.6877 23.18 27.8077 22.86L28.9477 19.854C29.0797 19.51 29.1377 19.27 29.1217 19.134C29.1057 18.994 29.0217 18.924 28.8697 18.924C28.8017 18.924 28.7237 18.946 28.6357 18.99C28.5517 19.034 28.4617 19.092 28.3657 19.164C28.3137 19.204 28.2637 19.242 28.2157 19.278C28.1717 19.314 28.1257 19.32 28.0777 19.296C28.0417 19.276 28.0217 19.242 28.0177 19.194C28.0137 19.146 28.0277 19.096 28.0597 19.044C28.1557 18.9 28.3017 18.778 28.4977 18.678C28.6937 18.574 28.8777 18.522 29.0497 18.522C29.1897 18.522 29.3057 18.56 29.3977 18.636C29.4897 18.708 29.5397 18.834 29.5477 19.014C29.5557 19.194 29.5017 19.44 29.3857 19.752L28.2457 22.77ZM29.5477 17.016C29.4037 17.016 29.2917 16.964 29.2117 16.86C29.1357 16.756 29.1177 16.632 29.1577 16.488C29.1857 16.384 29.2337 16.292 29.3017 16.212C29.3737 16.128 29.4557 16.064 29.5477 16.02C29.6397 15.972 29.7337 15.948 29.8297 15.948C29.9817 15.948 30.0937 16 30.1657 16.104C30.2417 16.204 30.2577 16.33 30.2137 16.482C30.1897 16.578 30.1417 16.666 30.0697 16.746C30.0017 16.826 29.9217 16.892 29.8297 16.944C29.7417 16.992 29.6477 17.016 29.5477 17.016ZM31.5904 23.472C31.5904 23.34 31.6044 23.16 31.6324 22.932C31.6604 22.7 31.6944 22.444 31.7344 22.164C31.7744 21.884 31.8144 21.604 31.8544 21.324C31.8984 21.04 31.9344 20.778 31.9624 20.538C31.9944 20.298 32.0124 20.102 32.0164 19.95C32.0244 19.634 31.9964 19.404 31.9324 19.26C31.8724 19.116 31.7684 19.044 31.6204 19.044C31.5204 19.044 31.4524 19.08 31.4164 19.152C31.3804 19.22 31.3504 19.296 31.3264 19.38C31.3024 19.46 31.2744 19.52 31.2424 19.56C31.2144 19.596 31.1804 19.612 31.1404 19.608C31.0804 19.608 31.0364 19.596 31.0084 19.572C30.9804 19.548 30.9664 19.498 30.9664 19.422C30.9664 19.322 31.0004 19.204 31.0684 19.068C31.1364 18.928 31.2344 18.806 31.3624 18.702C31.4944 18.598 31.6564 18.546 31.8484 18.546C32.0564 18.546 32.2084 18.66 32.3044 18.888C32.4004 19.112 32.4384 19.43 32.4184 19.842C32.4144 19.978 32.3984 20.162 32.3704 20.394C32.3424 20.626 32.3104 20.88 32.2744 21.156C32.2424 21.432 32.2084 21.706 32.1724 21.978C32.1364 22.25 32.1064 22.496 32.0824 22.716C32.0624 22.936 32.0524 23.104 32.0524 23.22C32.0524 23.352 32.0764 23.452 32.1244 23.52C32.1764 23.588 32.2564 23.622 32.3644 23.622C32.4884 23.622 32.6524 23.552 32.8564 23.412C33.0644 23.272 33.2844 23.08 33.5164 22.836C33.7524 22.592 33.9744 22.31 34.1824 21.99C34.3944 21.67 34.5664 21.326 34.6984 20.958C34.8304 20.59 34.8964 20.216 34.8964 19.836C34.8964 19.696 34.8804 19.594 34.8484 19.53C34.8164 19.462 34.7684 19.4 34.7044 19.344C34.6164 19.264 34.5504 19.188 34.5064 19.116C34.4624 19.04 34.4404 18.958 34.4404 18.87C34.4404 18.786 34.4724 18.708 34.5364 18.636C34.6044 18.56 34.6884 18.522 34.7884 18.522C34.9404 18.522 35.0684 18.6 35.1724 18.756C35.2764 18.908 35.3284 19.146 35.3284 19.47C35.3284 19.954 35.2524 20.426 35.1004 20.886C34.9484 21.342 34.7484 21.764 34.5004 22.152C34.2524 22.54 33.9844 22.88 33.6964 23.172C33.4084 23.464 33.1244 23.692 32.8444 23.856C32.5684 24.016 32.3264 24.096 32.1184 24.096C31.9584 24.096 31.8304 24.042 31.7344 23.934C31.6384 23.822 31.5904 23.668 31.5904 23.472ZM36.9293 22.77C36.7933 23.126 36.7373 23.368 36.7613 23.496C36.7893 23.624 36.8773 23.688 37.0253 23.688C37.0933 23.688 37.1653 23.668 37.2413 23.628C37.3173 23.588 37.4093 23.53 37.5173 23.454C37.5733 23.41 37.6253 23.372 37.6733 23.34C37.7213 23.304 37.7693 23.298 37.8173 23.322C37.8533 23.338 37.8733 23.372 37.8773 23.424C37.8813 23.472 37.8673 23.522 37.8353 23.574C37.7593 23.69 37.6253 23.804 37.4333 23.916C37.2413 24.028 37.0453 24.084 36.8453 24.084C36.7053 24.084 36.5853 24.05 36.4853 23.982C36.3893 23.91 36.3353 23.786 36.3232 23.61C36.3153 23.43 36.3713 23.18 36.4913 22.86L37.6313 19.854C37.7633 19.51 37.8213 19.27 37.8053 19.134C37.7893 18.994 37.7053 18.924 37.5533 18.924C37.4853 18.924 37.4073 18.946 37.3193 18.99C37.2353 19.034 37.1453 19.092 37.0493 19.164C36.9973 19.204 36.9473 19.242 36.8993 19.278C36.8553 19.314 36.8093 19.32 36.7613 19.296C36.7253 19.276 36.7053 19.242 36.7013 19.194C36.6973 19.146 36.7113 19.096 36.7433 19.044C36.8393 18.9 36.9853 18.778 37.1813 18.678C37.3773 18.574 37.5613 18.522 37.7333 18.522C37.8733 18.522 37.9893 18.56 38.0813 18.636C38.1733 18.708 38.2233 18.834 38.2313 19.014C38.2393 19.194 38.1853 19.44 38.0693 19.752L36.9293 22.77ZM38.2313 17.016C38.0873 17.016 37.9753 16.964 37.8953 16.86C37.8193 16.756 37.8013 16.632 37.8413 16.488C37.8693 16.384 37.9173 16.292 37.9853 16.212C38.0573 16.128 38.1393 16.064 38.2313 16.02C38.3233 15.972 38.4173 15.948 38.5133 15.948C38.6653 15.948 38.7773 16 38.8493 16.104C38.9253 16.204 38.9413 16.33 38.8973 16.482C38.8733 16.578 38.8253 16.666 38.7533 16.746C38.6853 16.826 38.6053 16.892 38.5133 16.944C38.4253 16.992 38.3313 17.016 38.2313 17.016ZM40.0714 19.296C40.0354 19.276 40.0154 19.242 40.0114 19.194C40.0074 19.146 40.0214 19.096 40.0534 19.044C40.1574 18.892 40.3054 18.768 40.4974 18.672C40.6934 18.572 40.8794 18.522 41.0554 18.522C41.2434 18.522 41.3734 18.562 41.4454 18.642C41.5214 18.722 41.5594 18.836 41.5594 18.984C41.5594 19.076 41.5454 19.186 41.5174 19.314C41.4894 19.442 41.4374 19.616 41.3614 19.836C41.2894 20.052 41.1854 20.344 41.0494 20.712C40.9134 21.076 40.7374 21.544 40.5214 22.116L40.3294 22.092C40.5774 21.42 40.8574 20.856 41.1694 20.4C41.4854 19.94 41.8074 19.574 42.1354 19.302C42.4674 19.026 42.7894 18.828 43.1014 18.708C43.4174 18.584 43.6974 18.522 43.9414 18.522C44.2174 18.522 44.4074 18.586 44.5114 18.714C44.6154 18.842 44.6494 19.036 44.6134 19.296C44.5814 19.552 44.4954 19.876 44.3554 20.268L43.4434 22.848C43.3434 23.136 43.3034 23.342 43.3234 23.466C43.3474 23.59 43.4274 23.652 43.5634 23.652C43.6394 23.652 43.7154 23.638 43.7914 23.61C43.8714 23.578 43.9594 23.524 44.0554 23.448C44.1114 23.4 44.1594 23.36 44.1994 23.328C44.2394 23.296 44.2834 23.292 44.3314 23.316C44.3674 23.332 44.3854 23.366 44.3854 23.418C44.3894 23.466 44.3794 23.512 44.3554 23.556C44.2754 23.708 44.1374 23.836 43.9414 23.94C43.7494 24.04 43.5574 24.09 43.3654 24.09C43.1974 24.09 43.0694 24.054 42.9814 23.982C42.8974 23.91 42.8574 23.788 42.8614 23.616C42.8654 23.444 42.9194 23.208 43.0234 22.908L43.9534 20.244C44.1294 19.736 44.1874 19.39 44.1274 19.206C44.0714 19.018 43.9114 18.924 43.6474 18.924C43.4274 18.924 43.1714 19.002 42.8794 19.158C42.5914 19.31 42.2954 19.53 41.9914 19.818C41.6914 20.102 41.4114 20.446 41.1514 20.85C40.8914 21.254 40.6814 21.708 40.5214 22.212C40.4414 22.468 40.3814 22.664 40.3414 22.8C40.3014 22.932 40.2754 23.03 40.2634 23.094C40.2514 23.158 40.2454 23.212 40.2454 23.256C40.2454 23.308 40.2594 23.38 40.2874 23.472C40.3154 23.56 40.3294 23.652 40.3294 23.748C40.3294 23.852 40.2814 23.936 40.1854 24C40.0894 24.06 39.9794 24.09 39.8554 24.09C39.7274 24.09 39.6534 24.024 39.6334 23.892C39.6174 23.756 39.6714 23.512 39.7954 23.16L40.9474 19.854C41.0674 19.502 41.1194 19.262 41.1034 19.134C41.0914 19.002 41.0114 18.936 40.8634 18.936C40.7954 18.936 40.7214 18.954 40.6414 18.99C40.5614 19.026 40.4694 19.084 40.3654 19.164C40.3054 19.208 40.2534 19.248 40.2094 19.284C40.1654 19.316 40.1194 19.32 40.0714 19.296ZM49.4624 24.096C49.3264 24.728 49.0824 25.26 48.7304 25.692C48.3784 26.128 47.9544 26.456 47.4584 26.676C46.9664 26.9 46.4344 27.012 45.8624 27.012C45.5064 27.012 45.2504 26.966 45.0944 26.874C44.9384 26.782 44.8604 26.668 44.8604 26.532C44.8604 26.436 44.8944 26.366 44.9624 26.322C45.0304 26.278 45.1144 26.256 45.2144 26.256C45.2744 26.256 45.3404 26.27 45.4124 26.298C45.4844 26.33 45.5644 26.366 45.6524 26.406C45.7404 26.45 45.8384 26.486 45.9464 26.514C46.0544 26.546 46.1704 26.562 46.2944 26.562C46.6904 26.562 47.0724 26.478 47.4404 26.31C47.8084 26.142 48.1284 25.884 48.4004 25.536C48.6764 25.192 48.8704 24.756 48.9824 24.228L49.6484 21.168L49.8464 21.294C49.6504 21.838 49.3824 22.32 49.0424 22.74C48.7064 23.16 48.3344 23.49 47.9264 23.73C47.5224 23.966 47.1184 24.084 46.7144 24.084C46.5144 24.084 46.3424 24.038 46.1984 23.946C46.0584 23.85 45.9504 23.708 45.8744 23.52C45.7984 23.332 45.7604 23.1 45.7604 22.824C45.7644 22.38 45.8384 21.946 45.9824 21.522C46.1264 21.098 46.3264 20.704 46.5824 20.34C46.8384 19.976 47.1344 19.658 47.4704 19.386C47.8104 19.11 48.1744 18.896 48.5624 18.744C48.9504 18.588 49.3504 18.51 49.7624 18.51C49.9584 18.51 50.1224 18.528 50.2544 18.564C50.3904 18.596 50.4924 18.64 50.5604 18.696C50.6324 18.752 50.6684 18.816 50.6684 18.888C50.6684 18.96 50.6544 19.022 50.6264 19.074C50.6024 19.126 50.5744 19.178 50.5424 19.23C50.5104 19.282 50.4864 19.344 50.4704 19.416L49.4624 24.096ZM46.2104 22.602C46.2104 22.85 46.2424 23.054 46.3064 23.214C46.3744 23.37 46.4724 23.484 46.6004 23.556C46.7284 23.628 46.8804 23.664 47.0564 23.664C47.3284 23.664 47.6044 23.574 47.8844 23.394C48.1644 23.214 48.4304 22.974 48.6824 22.674C48.9384 22.37 49.1664 22.032 49.3664 21.66C49.5664 21.284 49.7244 20.898 49.8404 20.502C49.9564 20.106 50.0144 19.73 50.0144 19.374C50.0144 19.186 49.9684 19.05 49.8764 18.966C49.7844 18.882 49.6524 18.84 49.4804 18.84C49.1884 18.84 48.8884 18.908 48.5804 19.044C48.2764 19.18 47.9824 19.37 47.6984 19.614C47.4184 19.854 47.1664 20.134 46.9424 20.454C46.7184 20.77 46.5404 21.112 46.4084 21.48C46.2764 21.848 46.2104 22.222 46.2104 22.602Z" fill="white"/>
</svg>
