<svg width="83" height="13" viewBox="0 0 83 13" fill="none" xmlns="http://www.w3.org/2000/svg">
<path d="M6.88184 3.516C6.88184 4.02 6.75984 4.458 6.51584 4.83C6.27184 5.202 5.93384 5.49 5.50184 5.694C5.06984 5.898 4.57584 6 4.01984 6C3.63184 6 3.25984 5.962 2.90384 5.886C2.54784 5.81 2.25184 5.698 2.01584 5.55L2.08784 5.31C2.22384 5.394 2.39584 5.468 2.60384 5.532C2.81584 5.596 3.04184 5.646 3.28184 5.682C3.52184 5.718 3.75584 5.736 3.98384 5.736C4.46384 5.736 4.87984 5.646 5.23184 5.466C5.58784 5.282 5.86184 5.022 6.05384 4.686C6.24984 4.35 6.34784 3.958 6.34784 3.51C6.34784 2.982 6.22584 2.518 5.98184 2.118C5.74184 1.718 5.39184 1.406 4.93184 1.182C4.47584 0.957999 3.92384 0.845999 3.27584 0.845999H2.31584V8.454C2.31584 8.53 2.33984 8.592 2.38784 8.64C2.43984 8.688 2.51184 8.716 2.60384 8.724L3.37784 8.79C3.44184 8.794 3.48584 8.806 3.50984 8.826C3.53784 8.846 3.55184 8.872 3.55184 8.904C3.55184 8.932 3.53984 8.956 3.51584 8.976C3.49584 8.992 3.45784 9 3.40184 9H1.01384C0.961844 9 0.923844 8.992 0.899844 8.976C0.875844 8.956 0.863844 8.932 0.863844 8.904C0.863844 8.844 0.921844 8.806 1.03784 8.79L1.54184 8.724C1.63384 8.712 1.70584 8.684 1.75784 8.64C1.80984 8.592 1.83584 8.53 1.83584 8.454V1.146C1.83584 1.07 1.80984 1.01 1.75784 0.965999C1.70584 0.918 1.63384 0.888 1.54184 0.875999L1.03784 0.81C0.921844 0.794 0.863844 0.756 0.863844 0.696C0.863844 0.664 0.875844 0.64 0.899844 0.624C0.923844 0.608 0.961844 0.599999 1.01384 0.599999H3.27584C4.01984 0.599999 4.65984 0.726 5.19584 0.978C5.73584 1.23 6.15184 1.576 6.44384 2.016C6.73584 2.456 6.88184 2.956 6.88184 3.516ZM8.82125 5.814H12.4573L12.5173 6.072H8.73125L8.82125 5.814ZM9.13925 8.904C9.13925 8.932 9.12525 8.956 9.09725 8.976C9.07325 8.992 9.03125 9 8.97125 9H7.15325C7.09325 9 7.04925 8.992 7.02125 8.976C6.99725 8.96 6.98525 8.938 6.98525 8.91C6.98525 8.886 6.99525 8.866 7.01525 8.85C7.03925 8.834 7.09125 8.816 7.17125 8.796L7.47125 8.718C7.57525 8.69 7.64925 8.646 7.69325 8.586C7.74125 8.522 7.79525 8.404 7.85525 8.232L10.3453 1.05C10.3773 0.97 10.3773 0.914 10.3453 0.882C10.3173 0.845999 10.2333 0.819999 10.0933 0.804C9.98125 0.792 9.90325 0.778 9.85925 0.762C9.81525 0.742 9.79325 0.716 9.79325 0.684C9.79325 0.656 9.80725 0.636 9.83525 0.624C9.86725 0.608 9.91125 0.599999 9.96725 0.599999H11.5393C11.5993 0.599999 11.6413 0.608 11.6653 0.624C11.6933 0.636 11.7073 0.654 11.7073 0.677999C11.7073 0.71 11.6873 0.736 11.6473 0.756C11.6113 0.776 11.5373 0.792 11.4253 0.804C11.3013 0.816 11.2273 0.836 11.2033 0.864C11.1793 0.888 11.1793 0.936 11.2033 1.008L13.8073 8.466C13.8393 8.566 13.8953 8.642 13.9753 8.694C14.0553 8.742 14.1753 8.774 14.3353 8.79C14.4273 8.798 14.4873 8.812 14.5153 8.832C14.5473 8.848 14.5633 8.872 14.5633 8.904C14.5633 8.932 14.5473 8.956 14.5153 8.976C14.4873 8.992 14.4453 9 14.3893 9H12.5293C12.4813 9 12.4413 8.992 12.4093 8.976C12.3813 8.956 12.3673 8.932 12.3673 8.904C12.3673 8.876 12.3813 8.852 12.4093 8.832C12.4373 8.812 12.4833 8.8 12.5473 8.796L13.1233 8.748C13.2273 8.74 13.2853 8.71 13.2973 8.658C13.3133 8.602 13.2993 8.512 13.2552 8.388L10.6093 0.827999L10.7353 0.81L8.17925 8.226C8.14325 8.334 8.12525 8.424 8.12525 8.496C8.12525 8.564 8.14725 8.618 8.19125 8.658C8.23925 8.694 8.30925 8.718 8.40125 8.73L8.95325 8.796C9.02525 8.804 9.07325 8.816 9.09725 8.832C9.12525 8.848 9.13925 8.872 9.13925 8.904ZM16.964 8.454C16.964 8.53 16.988 8.592 17.036 8.64C17.088 8.684 17.16 8.712 17.252 8.724L17.762 8.79C17.878 8.806 17.936 8.844 17.936 8.904C17.936 8.932 17.924 8.956 17.9 8.976C17.88 8.992 17.842 9 17.786 9H15.662C15.61 9 15.572 8.992 15.548 8.976C15.524 8.956 15.512 8.932 15.512 8.904C15.512 8.844 15.57 8.806 15.686 8.79L16.19 8.724C16.282 8.712 16.354 8.684 16.406 8.64C16.458 8.592 16.484 8.53 16.484 8.454V1.146C16.484 1.07 16.458 1.01 16.406 0.965999C16.354 0.918 16.282 0.888 16.19 0.875999L15.686 0.81C15.57 0.794 15.512 0.756 15.512 0.696C15.512 0.664 15.524 0.64 15.548 0.624C15.572 0.608 15.61 0.599999 15.662 0.599999H17.786C17.842 0.599999 17.88 0.608 17.9 0.624C17.924 0.64 17.936 0.664 17.936 0.696C17.936 0.756 17.878 0.794 17.762 0.81L17.252 0.875999C17.16 0.888 17.088 0.918 17.036 0.965999C16.988 1.01 16.964 1.07 16.964 1.146V8.454ZM22.4672 9.198C22.0592 9.198 21.7112 9.144 21.4232 9.036C21.1392 8.928 20.9112 8.822 20.7392 8.718C20.5672 8.61 20.4572 8.556 20.4092 8.556C20.3572 8.556 20.3252 8.588 20.3132 8.652C20.3012 8.712 20.2932 8.784 20.2892 8.868C20.2852 8.952 20.2752 9.024 20.2592 9.084C20.2432 9.148 20.2052 9.18 20.1452 9.18C20.1172 9.18 20.0932 9.168 20.0732 9.144C20.0572 9.124 20.0432 9.092 20.0312 9.048L19.5212 7.266C19.5052 7.218 19.5052 7.178 19.5212 7.146C19.5372 7.11 19.5652 7.086 19.6052 7.074C19.6452 7.062 19.6792 7.066 19.7072 7.086C19.7392 7.102 19.7652 7.132 19.7852 7.176C19.9652 7.576 20.1972 7.906 20.4812 8.166C20.7692 8.426 21.0852 8.62 21.4292 8.748C21.7732 8.876 22.1232 8.94 22.4792 8.94C23.0032 8.94 23.4072 8.79 23.6912 8.49C23.9792 8.19 24.1252 7.81 24.1292 7.35C24.1332 7.07 24.0732 6.806 23.9492 6.558C23.8292 6.306 23.6032 6.064 23.2712 5.832C22.9432 5.596 22.4692 5.364 21.8492 5.136C21.2692 4.916 20.8032 4.678 20.4512 4.422C20.0992 4.166 19.8432 3.886 19.6832 3.582C19.5232 3.274 19.4432 2.936 19.4432 2.568C19.4432 2.128 19.5412 1.75 19.7372 1.434C19.9372 1.114 20.2112 0.868 20.5592 0.696C20.9072 0.524 21.3052 0.438 21.7532 0.438C22.1652 0.438 22.4932 0.488 22.7372 0.588C22.9852 0.687999 23.1752 0.789999 23.3072 0.894C23.4432 0.993999 23.5472 1.044 23.6192 1.044C23.6992 1.044 23.7372 0.996 23.7332 0.9C23.7332 0.799999 23.7332 0.699999 23.7332 0.599999C23.7332 0.5 23.7732 0.45 23.8532 0.45C23.8852 0.45 23.9072 0.46 23.9192 0.48C23.9352 0.5 23.9512 0.532 23.9672 0.576L24.5792 2.508C24.5952 2.548 24.5952 2.588 24.5792 2.628C24.5632 2.664 24.5392 2.688 24.5072 2.7C24.4672 2.712 24.4312 2.71 24.3992 2.694C24.3672 2.678 24.3392 2.646 24.3152 2.598C24.0912 2.13 23.8452 1.758 23.5772 1.482C23.3092 1.202 23.0192 1 22.7072 0.875999C22.3992 0.751999 22.0692 0.689999 21.7172 0.689999C21.1652 0.689999 20.7192 0.849999 20.3792 1.17C20.0432 1.49 19.8752 1.914 19.8752 2.442C19.8752 2.742 19.9412 3.026 20.0732 3.294C20.2052 3.558 20.4312 3.81 20.7512 4.05C21.0752 4.286 21.5232 4.514 22.0952 4.734C22.7192 4.974 23.2112 5.22 23.5712 5.472C23.9312 5.724 24.1852 5.996 24.3332 6.288C24.4852 6.576 24.5592 6.896 24.5552 7.248C24.5512 7.6 24.4692 7.924 24.3092 8.22C24.1532 8.516 23.9212 8.754 23.6132 8.934C23.3052 9.11 22.9232 9.198 22.4672 9.198ZM27.1845 5.814H30.8205L30.8805 6.072H27.0945L27.1845 5.814ZM27.5025 8.904C27.5025 8.932 27.4885 8.956 27.4605 8.976C27.4365 8.992 27.3945 9 27.3345 9H25.5165C25.4565 9 25.4125 8.992 25.3845 8.976C25.3605 8.96 25.3485 8.938 25.3485 8.91C25.3485 8.886 25.3585 8.866 25.3785 8.85C25.4025 8.834 25.4545 8.816 25.5345 8.796L25.8345 8.718C25.9385 8.69 26.0125 8.646 26.0565 8.586C26.1045 8.522 26.1585 8.404 26.2185 8.232L28.7085 1.05C28.7405 0.97 28.7405 0.914 28.7085 0.882C28.6805 0.845999 28.5965 0.819999 28.4565 0.804C28.3445 0.792 28.2665 0.778 28.2225 0.762C28.1785 0.742 28.1565 0.716 28.1565 0.684C28.1565 0.656 28.1705 0.636 28.1985 0.624C28.2305 0.608 28.2745 0.599999 28.3305 0.599999H29.9025C29.9625 0.599999 30.0045 0.608 30.0285 0.624C30.0565 0.636 30.0705 0.654 30.0705 0.677999C30.0705 0.71 30.0505 0.736 30.0105 0.756C29.9745 0.776 29.9005 0.792 29.7885 0.804C29.6645 0.816 29.5905 0.836 29.5665 0.864C29.5425 0.888 29.5425 0.936 29.5665 1.008L32.1705 8.466C32.2025 8.566 32.2585 8.642 32.3385 8.694C32.4185 8.742 32.5385 8.774 32.6985 8.79C32.7905 8.798 32.8505 8.812 32.8785 8.832C32.9105 8.848 32.9265 8.872 32.9265 8.904C32.9265 8.932 32.9105 8.956 32.8785 8.976C32.8505 8.992 32.8085 9 32.7525 9H30.8925C30.8445 9 30.8045 8.992 30.7725 8.976C30.7445 8.956 30.7305 8.932 30.7305 8.904C30.7305 8.876 30.7445 8.852 30.7725 8.832C30.8005 8.812 30.8465 8.8 30.9105 8.796L31.4865 8.748C31.5905 8.74 31.6485 8.71 31.6605 8.658C31.6765 8.602 31.6625 8.512 31.6185 8.388L28.9725 0.827999L29.0985 0.81L26.5425 8.226C26.5065 8.334 26.4885 8.424 26.4885 8.496C26.4885 8.564 26.5105 8.618 26.5545 8.658C26.6025 8.694 26.6725 8.718 26.7645 8.73L27.3165 8.796C27.3885 8.804 27.4365 8.816 27.4605 8.832C27.4885 8.848 27.5025 8.872 27.5025 8.904ZM36.3233 8.904C36.3233 8.932 36.3073 8.956 36.2753 8.976C36.2473 8.992 36.2053 9 36.1493 9H33.9833C33.9273 9 33.8833 8.992 33.8513 8.976C33.8233 8.956 33.8093 8.932 33.8093 8.904C33.8093 8.86 33.8613 8.826 33.9653 8.802L34.4693 8.688C34.6533 8.644 34.7713 8.6 34.8233 8.556C34.8793 8.508 34.9073 8.424 34.9073 8.304V2.022C34.9073 1.926 34.8893 1.838 34.8533 1.758C34.8173 1.678 34.7293 1.56 34.5893 1.404L34.0193 0.762C33.9873 0.726 33.9673 0.7 33.9593 0.684C33.9513 0.668 33.9473 0.654 33.9473 0.642C33.9473 0.626 33.9533 0.615999 33.9653 0.611999C33.9813 0.603999 34.0033 0.599999 34.0313 0.599999H34.4033C34.4673 0.599999 34.5233 0.612 34.5713 0.636C34.6193 0.66 34.6713 0.706 34.7273 0.774L40.5713 7.992L40.3913 8.166V1.296C40.3913 1.176 40.3633 1.092 40.3073 1.044C40.2553 0.996 40.1373 0.952 39.9533 0.912L39.4433 0.797999C39.3393 0.774 39.2873 0.74 39.2873 0.696C39.2873 0.664 39.3013 0.64 39.3293 0.624C39.3613 0.608 39.4053 0.599999 39.4613 0.599999H41.6273C41.6833 0.599999 41.7253 0.608 41.7533 0.624C41.7853 0.64 41.8013 0.664 41.8013 0.696C41.8013 0.74 41.7493 0.774 41.6453 0.797999L41.1473 0.912C40.9593 0.952 40.8373 0.996 40.7813 1.044C40.7293 1.092 40.7033 1.176 40.7033 1.296V7.986C40.7033 8.074 40.7133 8.142 40.7333 8.19C40.7533 8.234 40.7833 8.282 40.8233 8.334L41.1893 8.778C41.2213 8.818 41.2433 8.85 41.2553 8.874C41.2713 8.898 41.2793 8.92 41.2793 8.94C41.2793 8.956 41.2713 8.97 41.2553 8.982C41.2393 8.994 41.2053 9 41.1533 9H40.6913C40.6033 9 40.5593 8.964 40.5593 8.892C40.5593 8.836 40.5493 8.788 40.5293 8.748C40.5133 8.708 40.4593 8.634 40.3673 8.526L35.0513 1.938L35.2193 1.734V8.304C35.2193 8.424 35.2453 8.508 35.2973 8.556C35.3533 8.6 35.4733 8.644 35.6573 8.688L36.1673 8.802C36.2713 8.826 36.3233 8.86 36.3233 8.904ZM44.54 5.814H48.176L48.236 6.072H44.45L44.54 5.814ZM44.858 8.904C44.858 8.932 44.844 8.956 44.816 8.976C44.792 8.992 44.75 9 44.69 9H42.872C42.812 9 42.768 8.992 42.74 8.976C42.716 8.96 42.704 8.938 42.704 8.91C42.704 8.886 42.714 8.866 42.734 8.85C42.758 8.834 42.81 8.816 42.89 8.796L43.19 8.718C43.294 8.69 43.368 8.646 43.412 8.586C43.46 8.522 43.514 8.404 43.574 8.232L46.064 1.05C46.096 0.97 46.096 0.914 46.064 0.882C46.036 0.845999 45.952 0.819999 45.812 0.804C45.7 0.792 45.622 0.778 45.578 0.762C45.534 0.742 45.512 0.716 45.512 0.684C45.512 0.656 45.526 0.636 45.554 0.624C45.586 0.608 45.63 0.599999 45.686 0.599999H47.258C47.318 0.599999 47.36 0.608 47.384 0.624C47.412 0.636 47.426 0.654 47.426 0.677999C47.426 0.71 47.406 0.736 47.366 0.756C47.33 0.776 47.256 0.792 47.144 0.804C47.02 0.816 46.946 0.836 46.922 0.864C46.898 0.888 46.898 0.936 46.922 1.008L49.526 8.466C49.558 8.566 49.614 8.642 49.694 8.694C49.774 8.742 49.894 8.774 50.054 8.79C50.146 8.798 50.206 8.812 50.234 8.832C50.266 8.848 50.282 8.872 50.282 8.904C50.282 8.932 50.266 8.956 50.234 8.976C50.206 8.992 50.164 9 50.108 9H48.248C48.2 9 48.16 8.992 48.128 8.976C48.1 8.956 48.086 8.932 48.086 8.904C48.086 8.876 48.1 8.852 48.128 8.832C48.156 8.812 48.202 8.8 48.266 8.796L48.842 8.748C48.946 8.74 49.004 8.71 49.016 8.658C49.032 8.602 49.018 8.512 48.974 8.388L46.328 0.827999L46.454 0.81L43.898 8.226C43.862 8.334 43.844 8.424 43.844 8.496C43.844 8.564 43.866 8.618 43.91 8.658C43.958 8.694 44.028 8.718 44.12 8.73L44.672 8.796C44.744 8.804 44.792 8.816 44.816 8.832C44.844 8.848 44.858 8.872 44.858 8.904ZM51.5968 9.06C51.5008 9.06 51.4108 9.036 51.3268 8.988C51.2468 8.936 51.1828 8.87 51.1348 8.79C51.0908 8.71 51.0688 8.624 51.0688 8.532C51.0688 8.428 51.0908 8.336 51.1348 8.256C51.1828 8.172 51.2468 8.108 51.3268 8.064C51.4108 8.016 51.5008 7.992 51.5968 7.992C51.6968 7.992 51.7848 8.016 51.8608 8.064C51.9408 8.108 52.0028 8.172 52.0468 8.256C52.0948 8.336 52.1188 8.428 52.1188 8.532C52.1188 8.624 52.0948 8.71 52.0468 8.79C52.0028 8.87 51.9408 8.936 51.8608 8.988C51.7848 9.036 51.6968 9.06 51.5968 9.06ZM56.4028 9H53.0488C52.9688 9 52.9088 8.986 52.8688 8.958C52.8288 8.93 52.8168 8.892 52.8328 8.844C52.8368 8.792 52.8648 8.754 52.9167 8.73C52.9728 8.706 53.0448 8.686 53.1328 8.67L53.4448 8.616C53.6168 8.584 53.7528 8.512 53.8528 8.4C53.9528 8.288 54.0308 8.13 54.0868 7.926C54.1348 7.754 54.1988 7.524 54.2788 7.236C54.3588 6.948 54.4468 6.626 54.5428 6.27C54.6428 5.91 54.7468 5.532 54.8548 5.136C54.9628 4.74 55.0668 4.35 55.1668 3.966C55.2708 3.578 55.3668 3.214 55.4548 2.874C55.5468 2.53 55.6248 2.23 55.6888 1.974C55.7528 1.718 55.7988 1.524 55.8268 1.392C55.8468 1.3 55.8388 1.218 55.8027 1.146C55.7708 1.074 55.7128 1.03 55.6288 1.014L55.2088 0.917999C55.1288 0.897999 55.0668 0.875999 55.0228 0.852C54.9828 0.828 54.9628 0.783999 54.9628 0.719999C54.9628 0.679999 54.9848 0.649999 55.0288 0.629999C55.0768 0.609999 55.1388 0.599999 55.2148 0.599999H57.3388C57.4068 0.599999 57.4588 0.612 57.4948 0.636C57.5348 0.66 57.5548 0.696 57.5548 0.744C57.5548 0.796 57.5288 0.838 57.4768 0.87C57.4248 0.901999 57.3588 0.921999 57.2788 0.93L56.8228 0.99C56.6868 1.006 56.5788 1.062 56.4988 1.158C56.4228 1.254 56.3588 1.384 56.3068 1.548C56.2748 1.656 56.2208 1.842 56.1448 2.106C56.0688 2.37 55.9788 2.684 55.8748 3.048C55.7748 3.408 55.6648 3.796 55.5448 4.212C55.4288 4.628 55.3128 5.044 55.1968 5.46C55.0848 5.876 54.9788 6.27 54.8788 6.642C54.7788 7.014 54.6928 7.34 54.6208 7.62C54.5488 7.896 54.4988 8.1 54.4708 8.232C54.4348 8.392 54.4468 8.506 54.5068 8.574C54.5708 8.642 54.6648 8.676 54.7888 8.676H56.4448C56.7208 8.676 56.9588 8.634 57.1588 8.55C57.3588 8.466 57.5308 8.322 57.6748 8.118C57.8228 7.914 57.9408 7.634 58.0288 7.278C58.0408 7.222 58.0608 7.174 58.0888 7.134C58.1208 7.09 58.1668 7.068 58.2268 7.068C58.2708 7.068 58.3028 7.08 58.3228 7.104C58.3468 7.128 58.3588 7.164 58.3588 7.212C58.3548 7.456 58.3088 7.694 58.2208 7.926C58.1328 8.154 58.0188 8.362 57.8788 8.55C57.7388 8.734 57.5888 8.882 57.4288 8.994C57.2728 9.102 57.1228 9.156 56.9788 9.156C56.9188 9.156 56.8608 9.142 56.8048 9.114C56.7488 9.09 56.6888 9.064 56.6248 9.036C56.5608 9.012 56.4868 9 56.4028 9ZM60.2457 7.77C60.1097 8.126 60.0537 8.368 60.0777 8.496C60.1057 8.624 60.1937 8.688 60.3417 8.688C60.4097 8.688 60.4817 8.668 60.5577 8.628C60.6337 8.588 60.7257 8.53 60.8337 8.454C60.8897 8.41 60.9417 8.372 60.9897 8.34C61.0377 8.304 61.0857 8.298 61.1337 8.322C61.1697 8.338 61.1897 8.372 61.1937 8.424C61.1977 8.472 61.1837 8.522 61.1517 8.574C61.0757 8.69 60.9417 8.804 60.7497 8.916C60.5577 9.028 60.3617 9.084 60.1617 9.084C60.0217 9.084 59.9017 9.05 59.8017 8.982C59.7057 8.91 59.6517 8.786 59.6397 8.61C59.6317 8.43 59.6877 8.18 59.8077 7.86L60.9477 4.854C61.0797 4.51 61.1377 4.27 61.1217 4.134C61.1057 3.994 61.0217 3.924 60.8697 3.924C60.8017 3.924 60.7237 3.946 60.6357 3.99C60.5517 4.034 60.4617 4.092 60.3657 4.164C60.3137 4.204 60.2637 4.242 60.2157 4.278C60.1717 4.314 60.1257 4.32 60.0777 4.296C60.0417 4.276 60.0217 4.242 60.0177 4.194C60.0137 4.146 60.0277 4.096 60.0597 4.044C60.1557 3.9 60.3017 3.778 60.4977 3.678C60.6937 3.574 60.8777 3.522 61.0497 3.522C61.1897 3.522 61.3057 3.56 61.3977 3.636C61.4897 3.708 61.5397 3.834 61.5477 4.014C61.5557 4.194 61.5017 4.44 61.3857 4.752L60.2457 7.77ZM61.5477 2.016C61.4037 2.016 61.2917 1.964 61.2117 1.86C61.1357 1.756 61.1177 1.632 61.1577 1.488C61.1857 1.384 61.2337 1.292 61.3017 1.212C61.3737 1.128 61.4557 1.064 61.5477 1.02C61.6397 0.972 61.7337 0.948 61.8297 0.948C61.9817 0.948 62.0937 1 62.1657 1.104C62.2417 1.204 62.2577 1.33 62.2137 1.482C62.1897 1.578 62.1417 1.666 62.0697 1.746C62.0017 1.826 61.9217 1.892 61.8297 1.944C61.7417 1.992 61.6477 2.016 61.5477 2.016ZM63.5904 8.472C63.5904 8.34 63.6044 8.16 63.6324 7.932C63.6604 7.7 63.6944 7.444 63.7344 7.164C63.7744 6.884 63.8144 6.604 63.8544 6.324C63.8984 6.04 63.9344 5.778 63.9624 5.538C63.9944 5.298 64.0124 5.102 64.0164 4.95C64.0244 4.634 63.9964 4.404 63.9324 4.26C63.8724 4.116 63.7684 4.044 63.6204 4.044C63.5204 4.044 63.4524 4.08 63.4164 4.152C63.3804 4.22 63.3504 4.296 63.3264 4.38C63.3024 4.46 63.2744 4.52 63.2424 4.56C63.2144 4.596 63.1804 4.612 63.1404 4.608C63.0804 4.608 63.0364 4.596 63.0084 4.572C62.9804 4.548 62.9664 4.498 62.9664 4.422C62.9664 4.322 63.0004 4.204 63.0684 4.068C63.1364 3.928 63.2344 3.806 63.3624 3.702C63.4944 3.598 63.6564 3.546 63.8484 3.546C64.0564 3.546 64.2084 3.66 64.3044 3.888C64.4004 4.112 64.4384 4.43 64.4184 4.842C64.4144 4.978 64.3984 5.162 64.3704 5.394C64.3424 5.626 64.3104 5.88 64.2744 6.156C64.2424 6.432 64.2084 6.706 64.1724 6.978C64.1364 7.25 64.1064 7.496 64.0824 7.716C64.0624 7.936 64.0524 8.104 64.0524 8.22C64.0524 8.352 64.0764 8.452 64.1244 8.52C64.1764 8.588 64.2564 8.622 64.3644 8.622C64.4884 8.622 64.6524 8.552 64.8564 8.412C65.0644 8.272 65.2844 8.08 65.5164 7.836C65.7524 7.592 65.9744 7.31 66.1824 6.99C66.3944 6.67 66.5664 6.326 66.6984 5.958C66.8304 5.59 66.8964 5.216 66.8964 4.836C66.8964 4.696 66.8804 4.594 66.8484 4.53C66.8164 4.462 66.7684 4.4 66.7044 4.344C66.6164 4.264 66.5504 4.188 66.5064 4.116C66.4624 4.04 66.4404 3.958 66.4404 3.87C66.4404 3.786 66.4724 3.708 66.5364 3.636C66.6044 3.56 66.6884 3.522 66.7884 3.522C66.9404 3.522 67.0684 3.6 67.1724 3.756C67.2764 3.908 67.3284 4.146 67.3284 4.47C67.3284 4.954 67.2524 5.426 67.1004 5.886C66.9484 6.342 66.7484 6.764 66.5004 7.152C66.2524 7.54 65.9844 7.88 65.6964 8.172C65.4084 8.464 65.1244 8.692 64.8444 8.856C64.5684 9.016 64.3264 9.096 64.1184 9.096C63.9584 9.096 63.8304 9.042 63.7344 8.934C63.6384 8.822 63.5904 8.668 63.5904 8.472ZM68.9293 7.77C68.7933 8.126 68.7373 8.368 68.7613 8.496C68.7893 8.624 68.8773 8.688 69.0253 8.688C69.0933 8.688 69.1653 8.668 69.2413 8.628C69.3173 8.588 69.4093 8.53 69.5173 8.454C69.5733 8.41 69.6253 8.372 69.6733 8.34C69.7213 8.304 69.7693 8.298 69.8173 8.322C69.8533 8.338 69.8733 8.372 69.8773 8.424C69.8813 8.472 69.8673 8.522 69.8353 8.574C69.7593 8.69 69.6253 8.804 69.4333 8.916C69.2413 9.028 69.0453 9.084 68.8453 9.084C68.7053 9.084 68.5853 9.05 68.4853 8.982C68.3893 8.91 68.3353 8.786 68.3232 8.61C68.3153 8.43 68.3713 8.18 68.4913 7.86L69.6313 4.854C69.7633 4.51 69.8213 4.27 69.8053 4.134C69.7893 3.994 69.7053 3.924 69.5533 3.924C69.4853 3.924 69.4073 3.946 69.3193 3.99C69.2353 4.034 69.1453 4.092 69.0493 4.164C68.9973 4.204 68.9473 4.242 68.8993 4.278C68.8553 4.314 68.8093 4.32 68.7613 4.296C68.7253 4.276 68.7053 4.242 68.7013 4.194C68.6973 4.146 68.7113 4.096 68.7433 4.044C68.8393 3.9 68.9853 3.778 69.1813 3.678C69.3773 3.574 69.5613 3.522 69.7333 3.522C69.8733 3.522 69.9893 3.56 70.0813 3.636C70.1733 3.708 70.2233 3.834 70.2313 4.014C70.2393 4.194 70.1853 4.44 70.0693 4.752L68.9293 7.77ZM70.2313 2.016C70.0873 2.016 69.9753 1.964 69.8953 1.86C69.8193 1.756 69.8013 1.632 69.8413 1.488C69.8693 1.384 69.9173 1.292 69.9853 1.212C70.0573 1.128 70.1393 1.064 70.2313 1.02C70.3233 0.972 70.4173 0.948 70.5133 0.948C70.6653 0.948 70.7773 1 70.8493 1.104C70.9253 1.204 70.9413 1.33 70.8973 1.482C70.8733 1.578 70.8253 1.666 70.7533 1.746C70.6853 1.826 70.6053 1.892 70.5133 1.944C70.4253 1.992 70.3313 2.016 70.2313 2.016ZM72.0714 4.296C72.0354 4.276 72.0154 4.242 72.0114 4.194C72.0074 4.146 72.0214 4.096 72.0534 4.044C72.1574 3.892 72.3054 3.768 72.4974 3.672C72.6934 3.572 72.8794 3.522 73.0554 3.522C73.2434 3.522 73.3734 3.562 73.4454 3.642C73.5214 3.722 73.5594 3.836 73.5594 3.984C73.5594 4.076 73.5454 4.186 73.5174 4.314C73.4894 4.442 73.4374 4.616 73.3614 4.836C73.2894 5.052 73.1854 5.344 73.0494 5.712C72.9134 6.076 72.7374 6.544 72.5214 7.116L72.3294 7.092C72.5774 6.42 72.8574 5.856 73.1694 5.4C73.4854 4.94 73.8074 4.574 74.1354 4.302C74.4674 4.026 74.7894 3.828 75.1014 3.708C75.4174 3.584 75.6974 3.522 75.9414 3.522C76.2174 3.522 76.4074 3.586 76.5114 3.714C76.6154 3.842 76.6494 4.036 76.6134 4.296C76.5814 4.552 76.4954 4.876 76.3554 5.268L75.4434 7.848C75.3434 8.136 75.3034 8.342 75.3234 8.466C75.3474 8.59 75.4274 8.652 75.5634 8.652C75.6394 8.652 75.7154 8.638 75.7914 8.61C75.8714 8.578 75.9594 8.524 76.0554 8.448C76.1114 8.4 76.1594 8.36 76.1994 8.328C76.2394 8.296 76.2834 8.292 76.3314 8.316C76.3674 8.332 76.3854 8.366 76.3854 8.418C76.3894 8.466 76.3794 8.512 76.3554 8.556C76.2754 8.708 76.1374 8.836 75.9414 8.94C75.7494 9.04 75.5574 9.09 75.3654 9.09C75.1974 9.09 75.0694 9.054 74.9814 8.982C74.8974 8.91 74.8574 8.788 74.8614 8.616C74.8654 8.444 74.9194 8.208 75.0234 7.908L75.9534 5.244C76.1294 4.736 76.1874 4.39 76.1274 4.206C76.0714 4.018 75.9114 3.924 75.6474 3.924C75.4274 3.924 75.1714 4.002 74.8794 4.158C74.5914 4.31 74.2954 4.53 73.9914 4.818C73.6914 5.102 73.4114 5.446 73.1514 5.85C72.8914 6.254 72.6814 6.708 72.5214 7.212C72.4414 7.468 72.3814 7.664 72.3414 7.8C72.3014 7.932 72.2754 8.03 72.2634 8.094C72.2514 8.158 72.2454 8.212 72.2454 8.256C72.2454 8.308 72.2594 8.38 72.2874 8.472C72.3154 8.56 72.3294 8.652 72.3294 8.748C72.3294 8.852 72.2814 8.936 72.1854 9C72.0894 9.06 71.9794 9.09 71.8554 9.09C71.7274 9.09 71.6534 9.024 71.6334 8.892C71.6174 8.756 71.6714 8.512 71.7954 8.16L72.9474 4.854C73.0674 4.502 73.1194 4.262 73.1034 4.134C73.0914 4.002 73.0114 3.936 72.8634 3.936C72.7954 3.936 72.7214 3.954 72.6414 3.99C72.5614 4.026 72.4694 4.084 72.3654 4.164C72.3054 4.208 72.2534 4.248 72.2094 4.284C72.1654 4.316 72.1194 4.32 72.0714 4.296ZM81.4624 9.096C81.3264 9.728 81.0824 10.26 80.7304 10.692C80.3784 11.128 79.9544 11.456 79.4584 11.676C78.9664 11.9 78.4344 12.012 77.8624 12.012C77.5064 12.012 77.2504 11.966 77.0944 11.874C76.9384 11.782 76.8604 11.668 76.8604 11.532C76.8604 11.436 76.8944 11.366 76.9624 11.322C77.0304 11.278 77.1144 11.256 77.2144 11.256C77.2744 11.256 77.3404 11.27 77.4124 11.298C77.4844 11.33 77.5644 11.366 77.6524 11.406C77.7404 11.45 77.8384 11.486 77.9464 11.514C78.0544 11.546 78.1704 11.562 78.2944 11.562C78.6904 11.562 79.0724 11.478 79.4404 11.31C79.8084 11.142 80.1284 10.884 80.4004 10.536C80.6764 10.192 80.8704 9.756 80.9824 9.228L81.6484 6.168L81.8464 6.294C81.6504 6.838 81.3824 7.32 81.0424 7.74C80.7064 8.16 80.3344 8.49 79.9264 8.73C79.5224 8.966 79.1184 9.084 78.7144 9.084C78.5144 9.084 78.3424 9.038 78.1984 8.946C78.0584 8.85 77.9504 8.708 77.8744 8.52C77.7984 8.332 77.7604 8.1 77.7604 7.824C77.7644 7.38 77.8384 6.946 77.9824 6.522C78.1264 6.098 78.3264 5.704 78.5824 5.34C78.8384 4.976 79.1344 4.658 79.4704 4.386C79.8104 4.11 80.1744 3.896 80.5624 3.744C80.9504 3.588 81.3504 3.51 81.7624 3.51C81.9584 3.51 82.1224 3.528 82.2544 3.564C82.3904 3.596 82.4924 3.64 82.5604 3.696C82.6324 3.752 82.6684 3.816 82.6684 3.888C82.6684 3.96 82.6544 4.022 82.6264 4.074C82.6024 4.126 82.5744 4.178 82.5424 4.23C82.5104 4.282 82.4864 4.344 82.4704 4.416L81.4624 9.096ZM78.2104 7.602C78.2104 7.85 78.2424 8.054 78.3064 8.214C78.3744 8.37 78.4724 8.484 78.6004 8.556C78.7284 8.628 78.8804 8.664 79.0564 8.664C79.3284 8.664 79.6044 8.574 79.8844 8.394C80.1644 8.214 80.4304 7.974 80.6824 7.674C80.9384 7.37 81.1664 7.032 81.3664 6.66C81.5664 6.284 81.7244 5.898 81.8404 5.502C81.9564 5.106 82.0144 4.73 82.0144 4.374C82.0144 4.186 81.9684 4.05 81.8764 3.966C81.7844 3.882 81.6524 3.84 81.4804 3.84C81.1884 3.84 80.8884 3.908 80.5804 4.044C80.2764 4.18 79.9824 4.37 79.6984 4.614C79.4184 4.854 79.1664 5.134 78.9424 5.454C78.7184 5.77 78.5404 6.112 78.4084 6.48C78.2764 6.848 78.2104 7.222 78.2104 7.602Z" fill="white"/>
</svg>
